<?xml version="1.0" encoding="UTF-8"?>
<svg version="1.1" xmlns="http://www.w3.org/2000/svg" width="1875" height="688">
<path d="M0 0 C1.09441406 0.90878906 1.09441406 0.90878906 2.2109375 1.8359375 C6.94994045 5.84865647 11.03276953 10.22692584 15 15 C13.55802532 18.28834683 11.76875893 20.49811282 9.25634766 23.05004883 C8.48860016 23.83378372 7.72085266 24.61751862 6.92984009 25.42500305 C6.09963348 26.26057236 5.26942688 27.09614166 4.4140625 27.95703125 C3.56073334 28.81938889 2.70740417 29.68174652 1.82821655 30.57023621 C0.02363904 32.38931341 -1.78375699 34.20559827 -3.59375 36.01928711 C-6.36961729 38.80709414 -9.12629172 41.61300092 -11.8828125 44.41992188 C-13.63686944 46.18343764 -15.39204039 47.9458462 -17.1484375 49.70703125 C-17.97459564 50.55272171 -18.80075378 51.39841217 -19.65194702 52.26972961 C-20.42599884 53.0377037 -21.20005066 53.8056778 -21.99755859 54.59692383 C-22.67547455 55.27991043 -23.3533905 55.96289703 -24.05184937 56.6665802 C-26 58 -26 58 -28.11270142 57.85429382 C-31.07431435 56.51370699 -32.61937529 54.23045099 -34.6875 51.75 C-58.91654485 24.15383974 -96.54083892 10.87301597 -132 6 C-132.92425781 5.86722656 -133.84851563 5.73445313 -134.80078125 5.59765625 C-178.14963641 0.55066035 -224.14113548 12.08568777 -259.0859375 38.31640625 C-261.78104211 40.48683363 -264.4029424 42.71346016 -267 45 C-267.85078125 45.74121094 -268.7015625 46.48242188 -269.578125 47.24609375 C-272.08482567 49.46444695 -274.55069919 51.71851425 -277 54 C-278.10794922 55.02673828 -278.10794922 55.02673828 -279.23828125 56.07421875 C-308.78445792 84.4658379 -328.13631994 128.36431202 -329.16113281 169.33862305 C-329.18068855 170.89626175 -329.19443506 172.45398153 -329.203125 174.01171875 C-329.21018463 174.85383408 -329.21724426 175.6959494 -329.22451782 176.56358337 C-329.54397514 201.94469174 -329.54397514 201.94469174 -326 227 C-325.80132324 227.91265625 -325.60264648 228.8253125 -325.39794922 229.765625 C-322.33923118 243.47601359 -318.05158776 256.32602454 -312 269 C-311.47599609 270.10166504 -311.47599609 270.10166504 -310.94140625 271.22558594 C-291.05728214 312.32308421 -254.32364776 343.29148171 -211.44189453 358.21386719 C-163.46679583 373.65875999 -110.8534471 368.70847605 -66.15429688 346.11547852 C-58.50799596 342.13842175 -51.69264906 337.45071418 -45 332 C-44.15888672 331.32710937 -44.15888672 331.32710937 -43.30078125 330.640625 C-9.3172891 303.33380129 3.20332752 267.10203139 11 225 C-43.45 225 -97.9 225 -154 225 C-154 206.52 -154 188.04 -154 169 C-80.74 169 -7.48 169 68 169 C71.48581023 195.72454506 71.48581023 195.72454506 71.3125 206.0625 C71.3012207 207.23385498 71.28994141 208.40520996 71.27832031 209.61206055 C70.32491476 271.1192634 49.20770691 323.57139177 5.296875 366.859375 C1.05468733 370.81297847 -3.4523328 374.40685653 -8 378 C-9.44632812 379.18916016 -9.44632812 379.18916016 -10.921875 380.40234375 C-48.58980566 410.66097333 -97.44722321 423.38500003 -145 425 C-146.00571045 425.03504639 -146.00571045 425.03504639 -147.03173828 425.07080078 C-211.72570583 426.97686222 -271.55100285 404.16761247 -318.68676758 360.10668945 C-335.89886843 343.84733814 -350.26466893 325.56672984 -362 305 C-362.36818848 304.36529785 -362.73637695 303.7305957 -363.11572266 303.07666016 C-383.54997994 267.63908361 -391.47173282 226.88164922 -391.3125 186.375 C-391.31067719 185.40922028 -391.30885437 184.44344055 -391.30697632 183.44839478 C-391.26044057 168.78053755 -390.73521176 154.44725507 -388 140 C-387.82839355 139.05543945 -387.65678711 138.11087891 -387.47998047 137.13769531 C-378.98583893 91.39533884 -357.15063837 51.35215709 -325 18 C-324.46584473 17.44393066 -323.93168945 16.88786133 -323.38134766 16.31494141 C-316.32168293 9.00352044 -309.08508144 2.18778233 -301 -4 C-300.44086914 -4.43022461 -299.88173828 -4.86044922 -299.30566406 -5.30371094 C-290.25212017 -12.23279478 -280.91645504 -18.38198199 -271 -24 C-270.40783691 -24.3412793 -269.81567383 -24.68255859 -269.20556641 -25.03417969 C-188.54768495 -71.28245739 -73.63565766 -61.57214057 0 0 Z " fill="#83B8FF" transform="translate(391,260)"/>
<path d="M0 0 C9.4271743 8.40579739 17.02631711 18.54368925 22.2890625 30.05981445 C22.2890625 30.71981445 22.2890625 31.37981445 22.2890625 32.05981445 C22.9490625 32.05981445 23.6090625 32.05981445 24.2890625 32.05981445 C24.68931641 31.21483398 24.68931641 31.21483398 25.09765625 30.3527832 C37.61095474 6.269812 63.4292205 -12.07590178 88.75390625 -20.47143555 C121.64366764 -30.77460131 159.45683655 -29.87381284 190.48046875 -14.04174805 C195.81942574 -11.1743588 200.62046655 -7.79877274 205.2890625 -3.94018555 C206.54589844 -2.92698242 206.54589844 -2.92698242 207.828125 -1.89331055 C232.22738848 18.80451668 242.58295166 51.06173693 245.2890625 82.05981445 C245.41578171 85.16781896 245.42039083 88.26999944 245.40931702 91.38026428 C245.41059865 92.72099531 245.41059865 92.72099531 245.41190618 94.08881181 C245.41354272 97.05971708 245.40806973 100.03056485 245.40258789 103.00146484 C245.4023056 105.14069619 245.40246457 107.27992764 245.4030304 109.41915894 C245.40331673 115.20977215 245.39744649 121.00036456 245.39045644 126.79097295 C245.38419561 132.84880165 245.38361694 138.90663085 245.38243103 144.96446228 C245.37932576 156.42831576 245.37112321 167.89215967 245.36108154 179.35600895 C245.34989543 192.41038155 245.34440366 205.46475462 245.33938611 218.51913083 C245.32893993 245.36603189 245.31060444 272.21291984 245.2890625 299.05981445 C225.4890625 299.05981445 205.6890625 299.05981445 185.2890625 299.05981445 C185.26718872 289.84068115 185.26718872 289.84068115 185.24487305 280.43530273 C185.19446478 260.09523132 185.12800696 239.7552355 185.05334759 219.41523933 C185.00848543 207.08697492 184.96904889 194.75873878 184.94262695 182.43041992 C184.91956907 171.67829138 184.8860847 160.92625302 184.84036094 150.17419612 C184.8165334 144.48722259 184.79773628 138.8003378 184.79144859 133.11331558 C184.78535006 127.74692337 184.76518043 122.38075792 184.73478699 117.01445007 C184.72608251 115.0579321 184.72226817 113.10138439 184.72405434 111.14484787 C184.73822991 88.42707885 182.62380294 62.57377605 166.8515625 44.74731445 C155.18721832 34.07760427 138.69134501 29.83109719 123.2890625 29.05981445 C122.30550781 29.00696289 121.32195312 28.95411133 120.30859375 28.8996582 C99.61503783 28.31993617 81.12724121 35.65885111 66.1015625 49.74731445 C43.71679955 73.64010354 37.00840365 102.70199021 36.97021484 134.56152344 C36.96089304 136.36667315 36.95072112 138.17181864 36.93977356 139.97695923 C36.91271305 144.82921311 36.89739607 149.68143837 36.88434553 154.53374743 C36.86860899 159.62263404 36.84185291 164.71146307 36.8163147 169.80030823 C36.76971182 179.41522196 36.73287879 189.03014675 36.69964182 198.64511496 C36.661289 209.60055016 36.61191374 220.55592726 36.56165767 231.51131332 C36.45861314 254.02744261 36.37071877 276.54359674 36.2890625 299.05981445 C16.4890625 299.05981445 -3.3109375 299.05981445 -23.7109375 299.05981445 C-23.73281128 289.94727051 -23.73281128 289.94727051 -23.75512695 280.65063477 C-23.80556037 260.53409464 -23.87202301 240.41763075 -23.94665241 220.30116653 C-23.99149272 208.10972207 -24.03093413 195.91830605 -24.05737305 183.72680664 C-24.08044881 173.09258577 -24.11395262 162.45845582 -24.15963906 151.8243072 C-24.18344282 146.20098602 -24.20225535 140.57775415 -24.20855141 134.95438385 C-24.21466094 129.64543903 -24.23486867 124.33672238 -24.26521301 119.02786255 C-24.27390029 117.09476057 -24.27773554 115.16162866 -24.27594566 113.228508 C-24.2612943 90.0722493 -25.94081778 63.79709413 -41.92578125 45.52856445 C-53.67407538 34.10396725 -69.68570555 29.86229193 -85.7109375 29.05981445 C-86.69449219 29.00696289 -87.67804688 28.95411133 -88.69140625 28.8996582 C-108.89861912 28.33356089 -126.00250449 35.27449845 -141.21484375 48.18481445 C-160.82576922 66.73845524 -171.23231807 94.31548257 -172.06886232 120.93724465 C-172.14038146 124.98704983 -172.14744464 129.0353639 -172.14331055 133.08569336 C-172.15235561 134.91099193 -172.16268941 136.73628449 -172.17419434 138.56156921 C-172.20146863 143.45499198 -172.21100804 148.3482986 -172.21704841 153.24178743 C-172.22651014 158.37871572 -172.252719 163.51555983 -172.27705383 168.6524353 C-172.32050996 178.35225236 -172.34918461 188.05205289 -172.37237722 197.75193727 C-172.39954169 208.80660697 -172.44344567 219.8611911 -172.48866594 230.91579938 C-172.58121267 253.63043687 -172.65082097 276.34506639 -172.7109375 299.05981445 C-192.5109375 299.05981445 -212.3109375 299.05981445 -232.7109375 299.05981445 C-232.7109375 195.10981445 -232.7109375 91.15981445 -232.7109375 -15.94018555 C-213.9009375 -15.94018555 -195.0909375 -15.94018555 -175.7109375 -15.94018555 C-175.7109375 -1.75018555 -175.7109375 12.43981445 -175.7109375 27.05981445 C-172.55355364 23.90243059 -170.15967535 21.47286763 -167.6484375 17.99731445 C-149.78542205 -5.1898827 -120.83280417 -21.97837683 -91.7109375 -25.94018555 C-90.91945313 -26.04975586 -90.12796875 -26.15932617 -89.3125 -26.2722168 C-56.98051195 -30.09697879 -24.71013256 -21.29318454 0 0 Z " fill="#3290FF" transform="translate(1068.7109375,378.940185546875)"/>
<path d="M0 0 C2.54957639 2.24634039 5.02956037 4.54960225 7.49609375 6.88671875 C8.39328125 7.71945312 9.29046875 8.5521875 10.21484375 9.41015625 C40.2996651 38.22735873 54.48322849 83.00379356 55.49609375 123.88671875 C55.56401145 127.7825936 55.6024253 131.67780302 55.62109375 135.57421875 C55.62592773 136.55672607 55.63076172 137.5392334 55.63574219 138.55151367 C55.63348633 139.47037354 55.63123047 140.3892334 55.62890625 141.3359375 C55.62777832 142.16440186 55.62665039 142.99286621 55.62548828 143.84643555 C55.49609375 145.88671875 55.49609375 145.88671875 54.49609375 147.88671875 C-27.01390625 147.88671875 -108.52390625 147.88671875 -192.50390625 147.88671875 C-189.05595096 180.64229403 -181.07358486 204.87365646 -155.94140625 226.94921875 C-133.68370458 244.87356257 -107.65608472 250.64398276 -79.50390625 248.88671875 C-61.947267 246.97091857 -46.36652917 239.57089498 -32.50390625 228.88671875 C-31.75625 228.31179688 -31.00859375 227.736875 -30.23828125 227.14453125 C-21.35166277 219.83231368 -14.85644258 210.18445603 -8.44921875 200.734375 C-6.85552414 198.4014365 -5.22183882 196.12867478 -3.50390625 193.88671875 C0.2067522 194.49039346 3.19543739 195.54195037 6.56176758 197.20336914 C7.54240677 197.68379166 8.52304596 198.16421417 9.53340149 198.65919495 C11.10241463 199.43890907 11.10241463 199.43890907 12.703125 200.234375 C13.78365646 200.76566513 14.86418793 201.29695526 15.97746277 201.84434509 C19.42390045 203.54049906 22.86626589 205.24474184 26.30859375 206.94921875 C28.64622052 208.10144691 30.98410815 209.25314603 33.32226562 210.40429688 C39.04991464 213.22564164 44.77424248 216.05363592 50.49609375 218.88671875 C49.42422418 222.31742439 48.40049406 225.41012343 46.39453125 228.40234375 C45.99097412 229.00860596 45.58741699 229.61486816 45.17163086 230.23950195 C44.74245361 230.8655835 44.31327637 231.49166504 43.87109375 232.13671875 C43.42451416 232.79567139 42.97793457 233.45462402 42.51782227 234.13354492 C38.76965524 239.60577523 34.8036057 244.84004795 30.49609375 249.88671875 C29.81160156 250.69367188 29.12710937 251.500625 28.421875 252.33203125 C10.55857023 272.7930518 -12.36482567 288.10637569 -38.12890625 296.82421875 C-38.88969482 297.08235352 -39.6504834 297.34048828 -40.43432617 297.60644531 C-43.10688908 298.45073286 -45.7916339 299.1793927 -48.50390625 299.88671875 C-49.12544586 300.05576721 -49.74698547 300.22481567 -50.38735962 300.39898682 C-63.74157909 303.94777093 -76.70952205 304.50969869 -90.48266602 304.40820312 C-93.93382173 304.38676586 -97.38289146 304.40811539 -100.83398438 304.43359375 C-117.95124365 304.45578371 -134.40386253 302.70431427 -150.56640625 296.76171875 C-151.37674316 296.46950439 -152.18708008 296.17729004 -153.02197266 295.8762207 C-172.96263956 288.40088077 -189.90406218 276.96715445 -205.11865234 262.22509766 C-206.31316769 261.07100299 -207.52602707 259.93595017 -208.7421875 258.8046875 C-238.36494558 230.60667129 -253.26561792 187.77554926 -254.61328125 147.62841797 C-255.77098436 95.82843926 -242.44648016 48.75230008 -206.28515625 10.6640625 C-201.96927481 6.35424269 -197.33446612 2.59940712 -192.50390625 -1.11328125 C-191.61574219 -1.8403125 -190.72757813 -2.56734375 -189.8125 -3.31640625 C-138.08253437 -44.47014803 -50.38070343 -42.52099931 0 0 Z M-160.50390625 46.88671875 C-161.13941406 47.4384375 -161.77492188 47.99015625 -162.4296875 48.55859375 C-174.38778282 59.66450296 -184.45646339 77.79241113 -187.50390625 93.88671875 C-187.50390625 95.20671875 -187.50390625 96.52671875 -187.50390625 97.88671875 C-128.43390625 97.88671875 -69.36390625 97.88671875 -8.50390625 97.88671875 C-12.07313288 74.68674563 -20.58628254 54.73250176 -39.96533203 40.50537109 C-76.5403538 14.53678358 -127.21942252 17.46514012 -160.50390625 46.88671875 Z " fill="#54A7FF" transform="translate(743.50390625,384.11328125)"/>
<path d="M0 0 C25.63693383 23.4492398 34.34744772 57.12912764 36.10722423 90.69663739 C36.41904256 98.27190995 36.32725131 105.8609407 36.31225586 113.44091797 C36.31197318 115.46280923 36.3121333 117.48470059 36.31269836 119.5065918 C36.31298317 124.94975397 36.30713789 130.39289374 36.30012441 135.83605075 C36.29383791 141.54150193 36.2932829 147.24695373 36.292099 152.95240784 C36.28900122 163.73607524 36.28080891 174.51973241 36.27074951 185.30339533 C36.25953995 197.58887686 36.25406576 209.8743589 36.24905407 222.15984428 C36.23862488 247.41312907 36.22029887 272.66639983 36.19873047 297.91967773 C16.39873047 297.91967773 -3.40126953 297.91967773 -23.80126953 297.91967773 C-23.82108887 292.07651855 -23.8409082 286.23335937 -23.86132812 280.21313477 C-23.9283436 260.87092395 -24.00588421 241.52876579 -24.08879662 222.1866169 C-24.13879301 210.46369845 -24.18523679 198.74078655 -24.22314453 187.01782227 C-24.25621675 176.79308771 -24.29613061 166.56840594 -24.34405959 156.34372985 C-24.36917407 150.93622907 -24.3909987 145.52876261 -24.40461349 140.12121964 C-24.41757184 135.01751782 -24.43977018 129.91393466 -24.46865273 124.81029892 C-24.47762212 122.95053146 -24.48339338 121.09074495 -24.48548317 119.23095703 C-24.51913574 93.8007386 -25.92155925 66.41884886 -44.48681641 46.97900391 C-59.39157172 32.20714766 -80.01759802 28.23090687 -100.30126953 27.60717773 C-121.29398712 28.02287511 -139.40929345 35.70255295 -154.55126953 50.16967773 C-176.75962445 73.44171293 -183.08270835 102.21255929 -183.12011719 133.42138672 C-183.12943899 135.22653643 -183.13961092 137.03168192 -183.15055847 138.83682251 C-183.17761898 143.68907639 -183.19293596 148.54130165 -183.2059865 153.39361072 C-183.22172304 158.48249733 -183.24847913 163.57132635 -183.27401733 168.66017151 C-183.32062021 178.27508524 -183.35745324 187.89001003 -183.39069021 197.50497824 C-183.42904303 208.46041344 -183.47841829 219.41579054 -183.52867436 230.3711766 C-183.6317189 252.88730589 -183.71961326 275.40346002 -183.80126953 297.91967773 C-203.60126953 297.91967773 -223.40126953 297.91967773 -243.80126953 297.91967773 C-243.80126953 193.96967773 -243.80126953 90.01967773 -243.80126953 -17.08032227 C-224.66126953 -17.08032227 -205.52126953 -17.08032227 -185.80126953 -17.08032227 C-185.80126953 -2.89032227 -185.80126953 11.29967773 -185.80126953 25.91967773 C-185.14126953 25.91967773 -184.48126953 25.91967773 -183.80126953 25.91967773 C-183.54345703 25.19135742 -183.28564453 24.46303711 -183.02001953 23.71264648 C-174.02782557 3.10553532 -148.5070018 -11.83979532 -128.46923828 -19.86938477 C-86.93437481 -35.62512511 -33.86202586 -29.97797853 0 0 Z " fill="#3788FF" transform="translate(1722.80126953125,380.080322265625)"/>
<path d="M0 0 C0.66 0 1.32 0 2 0 C2.34611328 1.79630859 2.34611328 1.79630859 2.69921875 3.62890625 C7.30663746 26.93334088 15.49320911 49.8883564 30 69 C30.62132812 69.82886719 31.24265625 70.65773438 31.8828125 71.51171875 C44.52869722 87.81825432 59.10597254 101.63700856 77 112 C77.7022168 112.40992187 78.40443359 112.81984375 79.12792969 113.2421875 C96.7248591 123.37212506 115.15208323 129.09827277 135 133 C132.76136249 135.23863751 131.89517599 135.42049172 128.87890625 136.04296875 C127.61409424 136.31693481 127.61409424 136.31693481 126.32373047 136.59643555 C125.41252441 136.79148682 124.50131836 136.98653809 123.5625 137.1875 C94.43083611 143.83641491 69.58761941 157.33650814 48 178 C47.2059375 178.73089844 46.411875 179.46179688 45.59375 180.21484375 C23.36960781 201.3488777 10.55300163 229.53235071 3.50488281 258.96337891 C2.75191487 262.000738 1.88055854 264.99737472 1 268 C0.67 268 0.34 268 0 268 C-0.32871094 266.25589844 -0.32871094 266.25589844 -0.6640625 264.4765625 C-4.11317892 246.80077206 -9.36223924 230.82155582 -18 215 C-18.86625 213.39511719 -18.86625 213.39511719 -19.75 211.7578125 C-26.6193128 199.51389849 -35.38389039 189.12298286 -45 179 C-45.6084375 178.31550781 -46.216875 177.63101563 -46.84375 176.92578125 C-69.09067132 152.8080961 -101.99976316 141.34687694 -133 134 C-133 133.67 -133 133.34 -133 133 C-132.34741211 132.86013672 -131.69482422 132.72027344 -131.02246094 132.57617188 C-87.9390734 123.18987869 -49.99284379 102.29289893 -25.19970703 64.86816406 C-12.65033446 45.32648744 -3.08025186 23.15499676 0 0 Z " fill="#076EFF" transform="translate(1275,0)"/>
<path d="M0 0 C19.8 0 39.6 0 60 0 C60 104.28 60 208.56 60 316 C40.2 316 20.4 316 0 316 C0 211.72 0 107.44 0 0 Z " fill="#5F9DFF" transform="translate(1803,362)"/>
<path d="M0 0 C19.8 0 39.6 0 60 0 C60 104.28 60 208.56 60 316 C40.2 316 20.4 316 0 316 C0 211.72 0 107.44 0 0 Z " fill="#2985FF" transform="translate(1369,362)"/>
<path d="M0 0 C9.67608146 7.10663462 16.9158605 16.02874745 19.1953125 27.98046875 C20.88447281 41.20179762 18.40579257 52.64988235 10.51171875 63.45703125 C4.4501733 71.0644742 -3.90359021 76.4173279 -13.48828125 78.45703125 C-28.39370662 79.21840858 -39.64107069 78.40403455 -51.48828125 68.45703125 C-60.17238382 60.53335798 -64.68137167 50.79856134 -65.69140625 39.10546875 C-65.95642631 26.25199583 -61.97366608 15.03087499 -53.11328125 5.64453125 C-38.98412557 -7.49527436 -16.67048199 -10.33726905 0 0 Z " fill="#086EFF" transform="translate(1421.48828125,217.54296875)"/>
<path d="M0 0 C8.54324972 6.12852082 14.96653899 13.92785608 17.3125 24.3125 C18.83343117 37.7561632 18.47749726 50.23349844 10.03515625 61.296875 C5.44256274 66.64664495 0.77100762 71.35754574 -5.6875 74.3125 C-6.37585937 74.62832031 -7.06421875 74.94414062 -7.7734375 75.26953125 C-18.23968979 79.18098049 -32.15367783 79.04335033 -42.37109375 74.56640625 C-53.63720726 68.46788612 -61.33791575 59.34004602 -65.6875 47.3125 C-68.67153981 36.52404839 -67.04603379 24.60872988 -62.0625 14.75 C-56.56912974 5.21660258 -48.60038534 -1.71711805 -38.25 -5.5 C-24.88659293 -9.08832227 -11.73690518 -7.15373338 0 0 Z " fill="#448FFF" transform="translate(1857.6875,218.6875)"/>
</svg>
