<?xml version="1.0" encoding="UTF-8"?>
<svg version="1.1" xmlns="http://www.w3.org/2000/svg" width="1024" height="1024">
<path d="M0 0 C0.96679688 0.69480469 1.93359375 1.38960937 2.9296875 2.10546875 C10.58992045 7.72628903 17.8096685 13.80046221 25 20 C25.77601563 20.65097656 26.55203125 21.30195312 27.3515625 21.97265625 C31.49664108 25.48557034 35.08263099 29.21582059 38.5546875 33.3984375 C39.92809017 35.11587815 39.92809017 35.11587815 42 36 C44.10703635 35.75990095 44.10703635 35.75990095 46.5546875 35.22265625 C76.95965052 29.53167495 109.72851403 29.51005599 140 36 C141.00788574 36.20898926 142.01577148 36.41797852 143.05419922 36.63330078 C183.82268692 45.29847051 220.84538086 64.49805838 252 92 C252.50772949 92.44456543 253.01545898 92.88913086 253.53857422 93.34716797 C298.56499286 132.93512422 326.84384635 190.3653474 331.8190918 250.01000977 C333.46021338 277.133918 331.15167527 303.2925522 324.40234375 329.62890625 C324.16845947 330.54889404 323.9345752 331.46888184 323.69360352 332.41674805 C323.25097643 334.06526517 322.77056731 335.70440639 322.24194336 337.32739258 C321.4657558 339.64312589 321.4657558 339.64312589 321 343 C322.30024979 345.57772111 322.30024979 345.57772111 324.6875 347.5625 C359.97877086 383.01615401 380.70277005 439.59715953 382 489 C382.03867188 490.24958496 382.03867188 490.24958496 382.078125 491.52441406 C383.76786192 553.34766346 363.31897694 612.74462143 322 659 C321.52062988 659.54108398 321.04125977 660.08216797 320.54736328 660.63964844 C300.24152123 683.46949393 275.75706127 702.15278831 248.00244141 715.06445312 C245.96369943 716.01695974 243.94156192 717.00015761 241.91796875 717.984375 C233.02718932 722.21174307 223.96576468 725.46405315 214.5625 728.375 C213.48500488 728.70886719 212.40750977 729.04273438 211.29736328 729.38671875 C204.58862287 731.39654944 197.91744362 732.90826974 191 734 C190.82984375 734.60730957 190.6596875 735.21461914 190.484375 735.84033203 C177.75288578 779.91803439 146.54081998 821.77658966 109.66210938 848.77783203 C108.03452167 849.97461582 106.43094826 851.20384142 104.828125 852.43359375 C54.95873507 890.13769186 -11.58788933 904.45419513 -73 896 C-121.11864763 889.20688335 -170.40392267 867.89263253 -204.51953125 832.48046875 C-206.10800433 830.83161167 -206.10800433 830.83161167 -208.5625 829 C-211 827 -211 827 -212.1418457 825.21850586 C-213.59569459 823.02045443 -214.84643925 821.53307965 -217 820 C-221.00597032 819.6750265 -224.72689829 820.69268729 -228.625 821.5625 C-257.00020057 826.70805347 -287.82760457 826.03991721 -316 820 C-317.51182861 819.68651611 -317.51182861 819.68651611 -319.05419922 819.36669922 C-359.82774953 810.70045345 -396.83800192 791.49817342 -428 764 C-428.50241211 763.56075195 -429.00482422 763.12150391 -429.52246094 762.66894531 C-474.58214281 723.12079252 -502.84392288 665.63373519 -507.8190918 605.98999023 C-509.46021338 578.866082 -507.15167527 552.7074478 -500.40234375 526.37109375 C-500.05429687 524.98748657 -500.05429687 524.98748657 -499.69921875 523.57592773 C-499 521 -499 521 -498.19140625 518.73852539 C-497.34512402 516.45793336 -497.34512402 516.45793336 -497 513 C-498.64108894 510.34679979 -499.95935975 508.69952654 -502.125 506.5625 C-503.2585904 505.34146784 -504.38599594 504.11467058 -505.5078125 502.8828125 C-506.09079102 502.24762695 -506.67376953 501.61244141 -507.27441406 500.95800781 C-536.17355279 468.16639879 -552.63433084 421.94600131 -557 379 C-557.11085938 378.01257813 -557.22171875 377.02515625 -557.3359375 376.0078125 C-560.53773321 342.69183015 -556.18083578 308.49521052 -545 277 C-544.76168457 276.3076123 -544.52336914 275.61522461 -544.27783203 274.90185547 C-540.68335178 264.48353693 -536.16261893 254.72762835 -531 245 C-530.62359375 244.28054199 -530.2471875 243.56108398 -529.859375 242.81982422 C-521.08923007 226.13096927 -510.55445077 211.05433813 -498 197 C-497.52062988 196.45891602 -497.04125977 195.91783203 -496.54736328 195.36035156 C-479.51919817 176.2155962 -459.99053452 161.07770424 -438 148 C-437.37480469 147.62536621 -436.74960937 147.25073242 -436.10546875 146.86474609 C-420.92790796 137.90039409 -403.9686689 131.59062919 -387.125 126.5625 C-386.30523682 126.31169678 -385.48547363 126.06089355 -384.64086914 125.80249023 C-381.22794544 124.79202267 -378.16211913 124.01378944 -374.6015625 123.7109375 C-371.2199353 123.38667188 -369.67786236 123.13297558 -367 121 C-363.76633192 115.30375815 -361.98286121 108.89337898 -359.94726562 102.70019531 C-357.65192117 96.15728045 -354.2807213 90.09100536 -351 84 C-350.64824707 83.33661621 -350.29649414 82.67323242 -349.93408203 81.98974609 C-340.0709582 63.46480474 -327.46838089 47.18385028 -313 32 C-312.42830078 31.39961914 -311.85660156 30.79923828 -311.26757812 30.18066406 C-302.74559855 21.29633982 -293.9618937 13.23738882 -284 6 C-283.39639648 5.55736816 -282.79279297 5.11473633 -282.17089844 4.65869141 C-201.94234845 -53.71796937 -85.33294254 -59.66601016 0 0 Z M-180 25 C-180.76183594 25.17660156 -181.52367187 25.35320312 -182.30859375 25.53515625 C-227.03531128 36.29827009 -266.24946077 66.56209732 -290.33618164 105.2800293 C-310.94092016 139.0507073 -316.32673498 175.01239382 -316.2746582 213.9206543 C-316.27901958 216.11604991 -316.2842074 218.31144402 -316.29014587 220.50683594 C-316.30337585 226.39192809 -316.30413401 232.27695545 -316.30158257 238.16205955 C-316.30050454 243.08880647 -316.30541593 248.01554071 -316.310188 252.94228488 C-316.32122181 264.55178381 -316.32175155 276.16125034 -316.31567383 287.77075195 C-316.30960195 299.7454362 -316.32203999 311.71996655 -316.3432439 323.6946246 C-316.3608245 334.00246831 -316.36686794 344.31027474 -316.36360615 354.61813289 C-316.36179175 360.76430596 -316.36444778 366.91039534 -316.37832069 373.05655479 C-316.39084107 378.81630204 -316.38901026 384.57586521 -316.37590981 390.33560944 C-316.37353398 392.45165632 -316.37631441 394.56771598 -316.38453293 396.68374825 C-316.39491451 399.56316094 -316.38697017 402.4419455 -316.3742218 405.32133484 C-316.38159609 406.16527115 -316.38897037 407.00920746 -316.39656812 407.8787176 C-316.49804135 412.07661905 -316.49804135 412.07661905 -314.61749429 415.64917499 C-312.56792364 417.3608418 -310.42442248 418.57946448 -308.08203125 419.86328125 C-307.08768066 420.41298584 -306.09333008 420.96269043 -305.06884766 421.52905273 C-303.99425293 422.11759033 -302.9196582 422.70612793 -301.8125 423.3125 C-299.52372361 424.57889472 -297.23598749 425.8471711 -294.94921875 427.1171875 C-294.36640137 427.44071701 -293.78358398 427.76424652 -293.18310547 428.09757996 C-287.4458396 431.29121252 -281.78281932 434.60584739 -276.125 437.9375 C-267.19227916 443.18701846 -258.18645854 448.28975677 -249.125 453.3125 C-248.52802307 453.64345673 -247.93104614 453.97441345 -247.315979 454.31539917 C-241.20420442 457.74475408 -241.20420442 457.74475408 -235 461 C-234.99910437 460.15564558 -234.99910437 460.15564558 -234.99819064 459.2942335 C-234.96227182 425.90838131 -234.90559472 392.52263616 -234.82207905 359.13687019 C-234.81206197 355.12534546 -234.80221778 351.11382033 -234.79248047 347.10229492 C-234.78956841 345.90439591 -234.78956841 345.90439591 -234.78659752 344.68229691 C-234.75560338 331.76314588 -234.7386041 318.8440126 -234.72680578 305.92483141 C-234.7143808 292.66177221 -234.68684905 279.39880594 -234.64538693 266.13580543 C-234.62029001 257.9563329 -234.60687993 249.77701456 -234.60857043 241.59750298 C-234.60860026 235.98326643 -234.59391403 230.36918656 -234.56783572 224.7550111 C-234.55323399 221.51918121 -234.54713505 218.28373557 -234.55419731 215.04787064 C-234.56085 211.53061148 -234.54288424 208.01428173 -234.51898193 204.49711609 C-234.52674235 203.4863832 -234.53450277 202.47565031 -234.54249835 201.43428916 C-234.42672275 191.77129585 -231.92752746 182.90650352 -225.12451172 175.80566406 C-221.0033492 172.30300743 -216.33206491 169.87939074 -211.5625 167.375 C-209.31266798 166.1557362 -207.06399783 164.9343264 -204.81640625 163.7109375 C-203.10928467 162.78812988 -203.10928467 162.78812988 -201.36767578 161.84667969 C-196.18256307 159.00340054 -191.0924648 156.00511199 -186 153 C-176.77699208 147.58326467 -167.47979874 142.31366153 -158.13793945 137.10498047 C-149.00862258 132.01375391 -139.92905085 126.83957525 -130.86132812 121.63964844 C-125.98311773 118.84425074 -121.10065746 116.05629125 -116.21865845 113.26751709 C-113.22763672 111.558845 -110.23687939 109.84971026 -107.24609375 108.140625 C-106.03499474 107.44856552 -104.82389448 106.75650823 -103.61279297 106.06445312 C-102.71545441 105.55168823 -102.71545441 105.55168823 -101.79998779 105.02856445 C-100.02307129 104.01318359 -98.24615479 102.99780273 -96.46923828 101.98242188 C-95.89146637 101.65226578 -95.31369446 101.32210968 -94.71841431 100.98194885 C-93.55449673 100.31685455 -92.39057664 99.65176462 -91.22665405 98.98667908 C-88.32487199 97.32854328 -85.42313332 95.67033162 -82.52148438 94.01196289 C-77.18822089 90.96396333 -71.85459213 87.91661002 -66.5194397 84.87191772 C-52.65381218 76.95894237 -38.80234146 69.02303592 -25 61 C-48.99692717 35.65996123 -92.11205555 21.80954835 -126.23165894 20.71051025 C-129.94647931 20.63087818 -133.65943167 20.61569791 -137.375 20.625 C-138.15936432 20.62521149 -138.94372864 20.62542297 -139.75186157 20.62564087 C-153.47112246 20.66236387 -166.61430199 21.82693815 -180 25 Z M-24.9140625 132.4375 C-30.97722 136.00566722 -37.10354245 139.45281074 -43.25 142.875 C-52.13303935 147.82508532 -60.98671311 152.82364701 -69.8125 157.875 C-70.68468674 158.37404846 -70.68468674 158.37404846 -71.57449341 158.88317871 C-75.7172242 161.25389051 -79.85876039 163.62668456 -84 166 C-88.72834018 168.70977867 -93.45729928 171.4184702 -98.1875 174.125 C-98.76823273 174.45737671 -99.34896545 174.78975342 -99.94729614 175.13220215 C-108.18729678 179.84634438 -116.45767961 184.50351899 -124.75 189.125 C-133.87981977 194.21398787 -142.92624561 199.43055874 -151.9375 204.72631836 C-160.54667353 209.77182358 -169.2445416 214.64851359 -177.98046875 219.47070312 C-178.97175781 220.02048828 -179.96304687 220.57027344 -180.984375 221.13671875 C-181.85803711 221.61842529 -182.73169922 222.10013184 -183.63183594 222.59643555 C-184.41333008 223.05961182 -185.19482422 223.52278809 -186 224 C-186.69947754 224.34463287 -187.39895508 224.68926575 -188.11962891 225.04434204 C-191.08698852 228.13050969 -190.52342544 231.6442522 -190.45410156 235.6940918 C-190.45468567 236.5821048 -190.45526978 237.4701178 -190.45587158 238.38504028 C-190.45308237 241.32349589 -190.42195089 244.26094012 -190.390625 247.19921875 C-190.38316559 249.2351679 -190.37747124 251.27112423 -190.37347412 253.30708313 C-190.35819422 258.66830229 -190.31889193 264.02908867 -190.2746582 269.39013672 C-190.23375639 274.85964096 -190.21547398 280.32921506 -190.1953125 285.79882812 C-190.15240011 296.53274234 -190.08412015 307.26633519 -190 318 C-186.31727709 316.55805394 -182.90915571 314.93719419 -179.44921875 313.015625 C-178.37075684 312.41741943 -177.29229492 311.81921387 -176.18115234 311.20288086 C-175.0164714 310.55215348 -173.85192404 309.90118697 -172.6875 309.25 C-172.09108704 308.91775421 -171.49467407 308.58550842 -170.88018799 308.24319458 C-161.49192357 303.01251873 -152.18787507 297.64806942 -142.92260742 292.20214844 C-134.79519657 287.43463911 -126.58399919 282.82891056 -118.35058594 278.24755859 C-111.2234156 274.27163947 -104.16045222 270.19826782 -97.125 266.0625 C-87.52434496 260.42100837 -77.82047748 254.98787386 -68.07128906 249.60791016 C-59.61478121 244.92883638 -51.25659066 240.10010297 -42.92456055 235.20361328 C-34.72246046 230.39401195 -26.44186462 225.7349018 -18.13745117 221.10473633 C-11.63465402 217.47820564 -5.14926305 213.82415704 1.3125 210.125 C2.54673706 209.41911743 2.54673706 209.41911743 3.8059082 208.69897461 C8.33638169 206.10538957 12.86217578 203.50380568 17.38450623 200.89605713 C19.92056747 199.43461674 22.45838899 197.97624936 24.99642944 196.51824951 C26.23442207 195.80602717 27.47160561 195.09239632 28.70791626 194.3772583 C45.22883019 184.82169806 45.22883019 184.82169806 52.3125 184.1875 C53.15425781 184.09855469 53.99601563 184.00960937 54.86328125 183.91796875 C64.82276702 184.17842853 72.10422972 187.80745892 80.625 192.75 C81.81562028 193.42744738 83.00687614 194.10377882 84.19873047 194.77905273 C87.81102869 196.83237537 91.40738872 198.91246666 95 201 C96.051875 201.61053223 97.10375 202.22106445 98.1875 202.85009766 C102.15857591 205.15994867 106.12601267 207.47581929 110.08740234 209.80224609 C118.12194548 214.51561557 126.23388703 219.07946188 134.37036133 223.61401367 C142.21126813 227.98772497 150.02046694 232.41496194 157.8125 236.875 C158.39495483 237.20836365 158.97740967 237.54172729 159.57751465 237.88519287 C162.53593532 239.57873714 165.49389866 241.27307826 168.45166016 242.96777344 C171.97031518 244.98350965 175.49072392 246.99616669 179.01171875 249.0078125 C179.5886145 249.33740967 180.16551025 249.66700684 180.7598877 250.0065918 C182.50656171 251.0044472 184.25327331 252.00223679 186 253 C192.4438901 256.68087148 198.88770704 260.36184992 205.32675171 264.05119324 C218.34119625 271.50784363 231.37386782 278.92848624 244.48120117 286.22119141 C251.37214753 290.06131452 258.19866035 294.00339046 265 298 C273.26941883 285.59587176 269.12538554 253.88643358 266.47607422 239.45141602 C266.0262788 237.28859621 265.52502523 235.14575531 265 233 C264.80664062 232.1853125 264.61328125 231.370625 264.4140625 230.53125 C256.57385001 198.39605807 240.88185026 170.71644662 218 147 C217.27554687 146.22398437 216.55109375 145.44796875 215.8046875 144.6484375 C185.70531184 113.21624816 140.21599856 95.17936796 97.17578125 93.78515625 C51.00369832 92.81284803 14.14106302 109.39497594 -24.9140625 132.4375 Z M-443 231 C-443.70640625 231.65355469 -444.4128125 232.30710937 -445.140625 232.98046875 C-455.46122496 242.81860164 -463.74265812 254.78741259 -471 267 C-471.51191895 267.85899902 -471.51191895 267.85899902 -472.03417969 268.73535156 C-480.18350261 282.63989009 -485.90292142 297.77939709 -489.875 313.375 C-490.16153442 314.49491333 -490.16153442 314.49491333 -490.45385742 315.63745117 C-493.46363094 328.27849996 -494.41275791 340.97738456 -494.375 353.9375 C-494.37445618 354.64900208 -494.37391235 355.36050415 -494.37335205 356.09356689 C-494.20639316 404.02145389 -473.67318497 447.89772205 -439.88574219 481.48022461 C-427.41535835 493.45752931 -412.95073905 502.47714398 -398 511 C-397.11602539 511.50466797 -396.23205078 512.00933594 -395.32128906 512.52929688 C-390.6122719 515.21098493 -385.89293567 517.87387362 -381.16796875 520.52734375 C-374.53113354 524.25702052 -367.9203689 528.03181261 -361.3125 531.8125 C-360.12695868 532.49056961 -358.94141179 533.16862947 -357.75585938 533.84667969 C-355.3639742 535.21479538 -352.97223474 536.58316544 -350.58056641 537.95166016 C-345.30330481 540.97100679 -340.02407184 543.98690319 -334.7449646 547.00302124 C-331.82989353 548.6685358 -328.91495347 550.33427963 -326 552 C-324.83333396 552.66666776 -323.66666729 553.33333443 -322.5 554 C-320.16666667 555.33333333 -317.83333333 556.66666667 -315.5 558 C-314.92251511 558.32998993 -314.34503021 558.65997986 -313.75004578 558.99996948 C-312.58322151 559.66672911 -311.41640226 560.3334975 -310.24958801 561.00027466 C-307.33537354 562.66559088 -304.42107258 564.33075537 -301.5065918 565.99560547 C-296.22724336 569.01154606 -290.94856056 572.02862341 -285.67306519 575.05130005 C-282.71996984 576.7432784 -279.76637011 578.43437464 -276.8125 580.125 C-276.23149536 580.45755798 -275.65049072 580.79011597 -275.05187988 581.13275146 C-265.80191441 586.42465356 -256.51776221 591.65320781 -247.19555664 596.81689453 C-241.82963744 599.80222318 -236.52907181 602.86569647 -231.28125 606.0546875 C-230.18651367 606.71452637 -229.09177734 607.37436523 -227.96386719 608.05419922 C-225.86644099 609.324063 -223.77800731 610.6089349 -221.70019531 611.91064453 C-220.76272461 612.47638184 -219.82525391 613.04211914 -218.859375 613.625 C-218.03920898 614.13289063 -217.21904297 614.64078125 -216.37402344 615.1640625 C-214.00478948 616.25049699 -214.00478948 616.25049699 -211.54321289 615.33496094 C-210.70395264 614.89442383 -209.86469238 614.45388672 -209 614 C-208.12045654 613.54399414 -207.24091309 613.08798828 -206.3347168 612.61816406 C-205.38250244 612.08932617 -204.43028809 611.56048828 -203.44921875 611.015625 C-202.37075684 610.41741943 -201.29229492 609.81921387 -200.18115234 609.20288086 C-199.0164714 608.55215348 -197.85192404 607.90118697 -196.6875 607.25 C-196.09108704 606.91775421 -195.49467407 606.58550842 -194.88018799 606.24319458 C-185.50971516 601.02243133 -176.2227312 595.6690702 -166.9753418 590.23291016 C-155.74850467 583.64677432 -144.37864558 577.3192121 -133 571 C-135.60202284 568.22514636 -137.99499904 566.24282364 -141.359375 564.4765625 C-142.6429187 563.79231201 -142.6429187 563.79231201 -143.95239258 563.09423828 C-144.87560303 562.60938965 -145.79881348 562.12454102 -146.75 561.625 C-154.86916162 557.28230223 -162.87903663 552.79828838 -170.8125 548.125 C-179.05261099 543.27937276 -187.33818698 538.53006313 -195.6875 533.875 C-205.87584434 528.19460617 -216.01963723 522.44245485 -226.13867188 516.63964844 C-231.61014778 513.50428733 -237.08674358 510.37787732 -242.5625 507.25 C-255.81118602 499.68204228 -255.81118602 499.68204228 -262.35865784 495.93057251 C-265.30118101 494.24464043 -268.24420472 492.55958372 -271.1875 490.875 C-271.76787018 490.54280457 -272.34824036 490.21060913 -272.94619751 489.86834717 C-281.18656999 485.15403356 -289.45732353 480.49667946 -297.75 475.875 C-306.88440736 470.78345499 -315.93627052 465.56568967 -324.95068359 460.26489258 C-333.37247101 455.32685822 -341.88563979 450.56144616 -350.453125 445.88085938 C-362.60266583 439.16960771 -372.88671669 433.19241889 -377.34976733 419.51447308 C-378.40125875 415.44831802 -378.42247961 411.51809159 -378.39872742 407.33787537 C-378.40537424 406.40730271 -378.41202107 405.47673005 -378.41886932 404.51795822 C-378.43741301 401.42258455 -378.43489983 398.32760035 -378.43237305 395.23217773 C-378.44139546 393.00427203 -378.45172386 390.77637129 -378.46325684 388.54847717 C-378.49079646 382.51613149 -378.50010729 376.48388007 -378.50611091 370.45147967 C-378.51550241 364.14136707 -378.54170648 357.83132466 -378.56611633 351.52125549 C-378.60480736 340.93532499 -378.63316923 330.34940598 -378.65356445 319.76342773 C-378.67459329 308.86333504 -378.70188495 297.96328748 -378.73754883 287.06323242 C-378.73974765 286.39053593 -378.74194648 285.71783944 -378.74421193 285.02475821 C-378.75528206 281.64979348 -378.76647478 278.27482916 -378.77772844 274.89986503 C-378.87082327 246.93328296 -378.94224181 218.96667569 -379 191 C-401.12568573 191 -428.00529057 216.72035619 -443 231 Z M31.43359375 242.5703125 C30.48589111 243.12992676 29.53818848 243.68954102 28.56176758 244.26611328 C27.53075928 244.8795459 26.49975098 245.49297852 25.4375 246.125 C16.78363462 251.2264044 8.08890795 256.23733401 -0.6875 261.125 C-9.49437151 266.03206862 -18.27159928 270.98596229 -27.0144043 276.00634766 C-32.31813761 279.04989044 -37.64676343 282.04436744 -43 285 C-40.52079295 287.77339447 -37.79477299 289.40788797 -34.56640625 291.23046875 C-33.45716797 291.86017578 -32.34792969 292.48988281 -31.20507812 293.13867188 C-29.99090721 293.82165334 -28.77671388 294.50459493 -27.5625 295.1875 C-26.29983742 295.90247797 -25.03747242 296.6179817 -23.77539062 297.33398438 C-21.15235438 298.82154145 -18.52804997 300.30682413 -15.90283203 301.79052734 C-9.92314471 305.17255286 -3.96262815 308.5880141 2 312 C3.74556463 312.9975311 5.49132114 313.99472581 7.23709106 314.99189758 C11.93531936 317.67555264 16.63226843 320.36141836 21.32693481 323.05130005 C24.28003016 324.7432784 27.23362989 326.43437464 30.1875 328.125 C30.76850464 328.45755798 31.34950928 328.79011597 31.94812012 329.13275146 C40.18785151 333.84669898 48.45796842 338.50367995 56.75 343.125 C65.89216085 348.22086682 74.9485805 353.44811224 83.97485352 358.74609375 C92.2120593 363.56905697 100.52531529 368.2467535 108.86206055 372.89501953 C117.98568816 377.98307331 127.05923591 383.15451448 136.12109375 388.3515625 C139.89286526 390.51124714 143.66925049 392.66280257 147.44580078 394.81411743 C152.20689191 397.5272296 156.96090627 400.25256704 161.71362305 402.98031616 C165.75367522 405.29563146 169.81126467 407.57797265 173.875 409.8515625 C176.02103303 411.06735591 178.1668754 412.28348594 180.3125 413.5 C181.29001221 414.03866699 182.26752441 414.57733398 183.2746582 415.13232422 C191.7284815 419.96329281 197.8284944 425.66167794 201 435 C202.23298967 439.69850459 202.15273894 444.32031084 202.15821838 449.1431427 C202.16315636 450.06621411 202.16809434 450.98928551 202.17318195 451.94032878 C202.18854331 455.03419199 202.19691392 458.12803448 202.20532227 461.22192383 C202.21490186 463.43938377 202.22491199 465.65684189 202.23532104 467.8742981 C202.26236737 473.89652556 202.28337845 479.91876087 202.30332303 485.94101548 C202.32518422 492.23377808 202.35257227 498.52651653 202.37937927 504.81925964 C202.42362978 515.38201851 202.46446535 525.94478632 202.50268555 536.50756836 C202.54205899 547.38648445 202.58348964 558.2653895 202.62768555 569.14428711 C202.63040982 569.8150475 202.63313409 570.48580788 202.63594092 571.17689434 C202.6496207 574.54195734 202.66334091 577.90702017 202.67708123 581.27208292 C202.79089842 609.18136602 202.89773806 637.09067235 203 665 C227.38402099 660.50321327 249.58766303 641.58197986 267 625 C267.70640625 624.34644531 268.4128125 623.69289063 269.140625 623.01953125 C279.46122496 613.18139836 287.74265812 601.21258741 295 589 C295.3412793 588.42733398 295.68255859 587.85466797 296.03417969 587.26464844 C311.12667629 561.51352745 318.47169372 532.09808886 318.3125 502.375 C318.30876877 501.25632538 318.30876877 501.25632538 318.30496216 500.11505127 C318.06620084 453.69116936 299.81661163 412.38211785 268 379 C267.22269531 378.15824219 266.44539063 377.31648437 265.64453125 376.44921875 C253.09238175 363.26630797 237.66056288 354.00593276 222 345 C220.9260498 344.3807666 219.85209961 343.7615332 218.74560547 343.12353516 C205.77428778 335.654754 192.74854333 328.28219619 179.71240234 320.92724609 C172.23220085 316.70436407 164.76939803 312.45135324 157.3125 308.1875 C156.43544907 307.68601944 156.43544907 307.68601944 155.54067993 307.17440796 C150.75927527 304.4401929 145.97868456 301.70455582 141.19812012 298.96887207 C137.02828817 296.58275917 132.85814428 294.19719278 128.6875 291.8125 C128.10239655 291.47793793 127.51729309 291.14337585 126.91445923 290.79867554 C119.12192384 286.3439309 111.31769355 281.91045474 103.5 277.5 C95.04917904 272.73159761 86.61309636 267.93780847 78.1875 263.125 C77.31608368 262.62758301 77.31608368 262.62758301 76.42706299 262.12011719 C69.77375732 258.32153066 63.1330535 254.50250738 56.51171875 250.6484375 C55.30121615 249.94510156 54.09068601 249.24181299 52.88012695 248.53857422 C50.58278933 247.20386891 48.28906468 245.86352277 45.99682617 244.52001953 C44.97435791 243.92560059 43.95188965 243.33118164 42.8984375 242.71875 C41.54758057 241.92887695 41.54758057 241.92887695 40.16943359 241.12304688 C36.39073246 239.1669333 34.90373106 240.50528814 31.43359375 242.5703125 Z M-95.63671875 315.0078125 C-96.75852539 315.65766113 -97.88033203 316.30750977 -99.03613281 316.97705078 C-100.25327094 317.69300711 -101.47039292 318.40899089 -102.6875 319.125 C-104.59072601 320.23176663 -106.49574305 321.33540643 -108.40084839 322.43893433 C-109.69953588 323.19146871 -110.99764739 323.94499793 -112.29519653 324.69949341 C-118.40539335 328.24946448 -124.57247883 331.69369953 -130.75 335.125 C-139.9234499 340.23715498 -149.01515367 345.4757686 -158.0715332 350.79223633 C-166.31358671 355.62331295 -174.61960378 360.33521803 -182.95556641 365.00219727 C-183.86612793 365.51322998 -184.77668945 366.0242627 -185.71484375 366.55078125 C-186.92321899 367.22620972 -186.92321899 367.22620972 -188.15600586 367.9152832 C-189.9510314 368.86737922 -189.9510314 368.86737922 -191 370 C-191.1173945 371.49125605 -191.16623041 372.98797056 -191.18754578 374.48368835 C-191.20337204 375.45243393 -191.2191983 376.4211795 -191.23550415 377.41928101 C-191.24761932 378.49094513 -191.2597345 379.56260925 -191.2722168 380.66674805 C-191.28842575 381.7886705 -191.3046347 382.91059296 -191.32133484 384.06651306 C-191.46160395 394.42540427 -191.54111301 404.78517045 -191.60025311 415.14482403 C-191.64481522 422.80334391 -191.72191551 430.46007152 -191.84183758 438.11778992 C-191.93312988 444.15075799 -191.96969092 450.1828815 -191.98771095 456.21656227 C-192.00367899 458.78236165 -192.03698505 461.34811334 -192.08786583 463.91345787 C-192.15570797 467.50589439 -192.16086758 471.09333163 -192.15112305 474.6862793 C-192.18550476 475.74782227 -192.21988647 476.80936523 -192.25531006 477.90307617 C-192.20871673 480.91746508 -192.07397938 483.17961774 -191 486 C-187.96172511 488.72542269 -184.70569727 490.34682277 -181 492 C-179.38569092 492.93851807 -179.38569092 492.93851807 -177.73876953 493.89599609 C-176.79630371 494.43305176 -175.85383789 494.97010742 -174.8828125 495.5234375 C-173.79589111 496.1436377 -172.70896973 496.76383789 -171.58911133 497.40283203 C-169.87437622 498.37905518 -169.87437622 498.37905518 -168.125 499.375 C-166.896668 500.07525192 -165.66839785 500.77561237 -164.44018555 501.47607422 C-162.53502106 502.56258844 -160.62980796 503.64901641 -158.72434998 504.73501587 C-154.42125359 507.1878249 -150.12166167 509.64667613 -145.82421875 512.109375 C-133.36851766 519.24483641 -120.89216902 526.33879081 -108.34301758 533.30908203 C-107.39193115 533.83872559 -106.44084473 534.36836914 -105.4609375 534.9140625 C-104.54795898 535.41969727 -103.63498047 535.92533203 -102.69433594 536.44628906 C-100.86115583 537.50340742 -99.05705868 538.61225116 -97.28222656 539.76464844 C-92.47187252 542.98722575 -92.47187252 542.98722575 -86.9453125 544.19140625 C-82.68597908 542.46846634 -78.8185776 540.28609611 -74.875 537.9375 C-72.98856265 536.83675719 -71.10182833 535.7365232 -69.21484375 534.63671875 C-68.20921387 534.04681152 -67.20358398 533.4569043 -66.16748047 532.84912109 C-61.19798461 529.94801414 -56.19728134 527.10200267 -51.19760132 524.25332642 C-48.22144987 522.55680399 -45.24757208 520.8563048 -42.2734375 519.15625 C-41.06348722 518.4648251 -39.85352625 517.7734189 -38.64355469 517.08203125 C-38.04265015 516.73865723 -37.44174561 516.3952832 -36.82263184 516.04150391 C-19.88175456 506.3610026 -2.94087728 496.6805013 14 487 C14 448.06 14 409.12 14 369 C5.75 364.38 -2.5 359.76 -11 355 C-23 348 -23 348 -28.95703125 344.5078125 C-36.18950447 340.28916422 -43.49838329 336.21018049 -50.81152344 332.13354492 C-57.81234641 328.23000548 -64.79151884 324.29104631 -71.75 320.3125 C-72.61326904 319.81927246 -73.47653809 319.32604492 -74.3659668 318.81787109 C-75.1681665 318.35848145 -75.97036621 317.8990918 -76.796875 317.42578125 C-77.53615234 317.00377441 -78.27542969 316.58176758 -79.03710938 316.14697266 C-80.66078723 315.19821164 -82.24979595 314.19039461 -83.828125 313.16796875 C-88.48425117 310.66404479 -91.49093654 312.58122647 -95.63671875 315.0078125 Z M59 395 C58.99853479 395.84175004 58.99853479 395.84175004 58.99703997 396.70050514 C58.93873725 429.97772663 58.86491727 463.2548734 58.77101372 496.53201287 C58.75974588 500.52980515 58.74860738 504.52759777 58.73754883 508.52539062 C58.73534514 509.32126166 58.73314146 510.1171327 58.730871 510.93712105 C58.695522 523.81490921 58.67064434 536.69269732 58.64965298 549.57051598 C58.62787182 562.78948809 58.59479943 576.00839737 58.55129844 589.22731602 C58.52482158 597.3806625 58.50709703 605.53393072 58.50065396 613.68731804 C58.49538792 619.28236923 58.47913024 624.87732205 58.45433434 630.47232048 C58.44036079 633.69784205 58.43276525 636.92315366 58.43499184 640.14871025 C58.4366469 643.65304586 58.41992427 647.15684093 58.39872742 650.66110229 C58.40357499 651.67085708 58.40842257 652.68061186 58.41341704 653.72096527 C58.31353872 663.75445633 56.24186931 672.7032756 49 680 C42.62867822 684.88394004 35.45250394 688.6415271 28.4375 692.5 C19.89902933 697.23630129 11.41777897 702.0523847 3 707 C-6.15027173 712.37324248 -15.37669484 717.59273057 -24.64892578 722.75219727 C-31.77628267 726.72815635 -38.83939092 730.80163998 -45.875 734.9375 C-55.47565504 740.57899163 -65.17952252 746.01212614 -74.92871094 751.39208984 C-83.3823437 756.06957281 -91.73838972 760.89553617 -100.06665039 765.79199219 C-108.34092382 770.64557411 -116.70108908 775.33483016 -125.08227539 780.00073242 C-133.80331427 784.86504307 -142.42604393 789.8815723 -151 795 C-128.03767372 819.24753111 -85.84533839 834.26355723 -52.99682617 835.16113281 C-51.59560613 835.18063271 -50.19429737 835.19441125 -48.79296875 835.203125 C-48.0342598 835.21018463 -47.27555084 835.21724426 -46.49385071 835.22451782 C-23.56807078 835.53559266 -23.56807078 835.53559266 -1 832 C-0.18289551 831.80132324 0.63420898 831.60264648 1.47607422 831.39794922 C37.93423304 822.30554458 72.88489547 803.42616922 97 774 C97.43570313 773.48195801 97.87140625 772.96391602 98.3203125 772.43017578 C122.60048523 743.53255042 139.04327903 706.22537194 139.18081665 668.0809021 C139.18802117 667.11049819 139.19522568 666.14009427 139.20264852 665.14028418 C139.22528431 661.90391838 139.24090966 658.66755992 139.25634766 655.43115234 C139.27080601 653.10475993 139.2855638 650.77836936 139.30059814 648.45198059 C139.43045515 627.28524764 139.49688598 606.11799852 139.54844093 584.95093346 C139.55544905 582.12353866 139.56257621 579.29614419 139.56982422 576.46875 C139.57161951 575.76607217 139.5734148 575.06339435 139.5752645 574.33942325 C139.60537388 562.94003287 139.67019439 551.54110112 139.74851067 540.14195101 C139.82832317 528.4279698 139.87411775 516.71422671 139.88746679 504.99997866 C139.89634163 498.42669946 139.9206795 491.85430752 139.98213577 485.28129196 C140.03924822 479.10363384 140.05409199 472.92732365 140.03626251 466.74944115 C140.03714294 464.48141274 140.05347555 462.2133304 140.08630753 459.94553947 C140.12879719 456.85042329 140.11588389 453.76030899 140.08901978 450.66513062 C140.12731996 449.31629951 140.12731996 449.31629951 140.16639388 447.94021928 C140.10840991 445.33578515 139.95913001 443.42594771 139 441 C136.2775246 438.42001225 133.31934538 436.71084234 130 435 C128.97060303 434.39414062 127.94120605 433.78828125 126.88061523 433.1640625 C125.4837146 432.40222656 125.4837146 432.40222656 124.05859375 431.625 C122.99253906 431.03944336 121.92648437 430.45388672 120.828125 429.85058594 C119.70921875 429.23989258 118.5903125 428.62919922 117.4375 428 C115.02795116 426.67547891 112.620886 425.34650412 110.21484375 424.015625 C109.60961884 423.68089172 109.00439392 423.34615845 108.38082886 423.00128174 C99.43671307 418.0400656 90.63321703 412.83532393 81.81591797 407.65332031 C77.23819109 404.96558263 72.65211976 402.29236667 68.0625 399.625 C67.25683594 399.15416992 66.45117188 398.68333984 65.62109375 398.19824219 C62.48990356 396.0070481 62.48990356 396.0070481 59 395 Z M8.5859375 540.04296875 C7.44447266 540.6978125 6.30300781 541.35265625 5.12695312 542.02734375 C4.51601807 542.37909668 3.90508301 542.73084961 3.27563477 543.09326172 C0.05861483 544.94537262 -3.16236746 546.79057208 -6.3828125 548.63671875 C-7.35912628 549.19678116 -7.35912628 549.19678116 -8.35516357 549.76815796 C-14.05615094 553.03693498 -19.774873 556.27369665 -25.5 559.5 C-37.50055277 566.26932663 -49.46063284 573.10898252 -61.41943359 579.95166016 C-64.95212363 581.97286293 -68.48567996 583.99254713 -72.01953125 586.01171875 C-72.59593353 586.34106918 -73.17233582 586.67041962 -73.76620483 587.00975037 C-76.67477685 588.67161353 -79.58345136 590.33329717 -82.4921875 591.99487305 C-87.77192788 595.01108389 -93.05102783 598.02838757 -98.32693481 601.05130005 C-101.28003016 602.7432784 -104.23362989 604.43437464 -107.1875 606.125 C-107.76850464 606.45755798 -108.34950928 606.79011597 -108.94812012 607.13275146 C-117.18785151 611.84669898 -125.45796842 616.50367995 -133.75 621.125 C-141.8873249 625.66076837 -149.96537532 630.28475224 -158 635 C-168.18264947 640.97541202 -178.45491997 646.77546629 -188.76953125 652.51953125 C-193.02863743 654.89256738 -197.27474208 657.286893 -201.51171875 659.69921875 C-202.559646 660.29532959 -203.60757324 660.89144043 -204.68725586 661.50561523 C-206.67778979 662.63932308 -208.66696441 663.77542207 -210.65454102 664.91430664 C-211.54713623 665.4221167 -212.43973145 665.92992676 -213.359375 666.453125 C-214.13764648 666.89817383 -214.91591797 667.34322266 -215.71777344 667.80175781 C-223.42907786 671.85044011 -232.05229976 673.20732734 -240.546875 670.890625 C-251.47826701 666.92190306 -261.44330268 660.48309597 -271.41821289 654.60839844 C-278.72591968 650.30689466 -286.08858388 646.11996581 -293.5 642 C-301.68211144 637.44768068 -309.8031446 632.80751407 -317.875 628.0625 C-326.34965015 623.08266605 -334.89400177 618.24910897 -343.5 613.5 C-353.10583235 608.19914549 -362.61674763 602.76220901 -372.07543945 597.20361328 C-380.26734387 592.39999056 -388.53721067 587.74586941 -396.83178711 583.12231445 C-406.15262531 577.92518331 -415.42207719 572.64149865 -424.67871094 567.33105469 C-428.22094314 565.29989672 -431.76672956 563.27497272 -435.3125 561.25 C-437.20833333 560.16666667 -439.10416667 559.08333333 -441 558 C-443.93080795 562.39621192 -443.77857256 566.74825497 -444.1875 571.9375 C-444.27281982 573.01346436 -444.35813965 574.08942871 -444.44604492 575.19799805 C-447.69696816 621.25104548 -431.91612064 665.60287844 -401.8828125 700.45703125 C-371.37966244 734.92233425 -327.93755431 758.96832343 -281.35302734 761.88720703 C-231.78846142 764.2630972 -193.02406123 748.0344299 -150.92578125 723.68798828 C-146.03093974 720.86397842 -141.12171075 718.06517307 -136.21380615 715.26394653 C-133.22800509 713.55959921 -130.24288211 711.8540655 -127.2578125 710.1484375 C-126.65897247 709.80629715 -126.06013245 709.4641568 -125.44314575 709.11164856 C-121.84132379 707.05341706 -118.24080039 704.99293476 -114.64134216 702.93057251 C-111.69881899 701.24464043 -108.75579528 699.55958372 -105.8125 697.875 C-104.94194473 697.37670685 -104.94194473 697.37670685 -104.05380249 696.86834717 C-95.81343001 692.15403356 -87.54267647 687.49667946 -79.25 682.875 C-70.10783915 677.77913318 -61.0514195 672.55188776 -52.02514648 667.25390625 C-43.80095777 662.43856465 -35.50097147 657.76803448 -27.17749023 653.12695312 C-20.28687569 649.28405821 -13.41388778 645.41243317 -6.5625 641.5 C-5.74112549 641.03190918 -4.91975098 640.56381836 -4.07348633 640.08154297 C0.12659029 637.6786704 4.30837195 635.24565898 8.47265625 632.78125 C9.2912915 632.29720703 10.10992676 631.81316406 10.95336914 631.31445312 C13.10998542 630.03191327 13.10998542 630.03191327 15 628 C15.18824486 625.10777447 15.25170246 622.3120186 15.22705078 619.41943359 C15.22748886 618.08763313 15.22748886 618.08763313 15.22793579 616.72892761 C15.22653907 613.78533253 15.21096184 610.84198853 15.1953125 607.8984375 C15.19158358 605.86105487 15.18873604 603.82367046 15.18673706 601.7862854 C15.17909104 596.41698275 15.15943425 591.04778784 15.1373291 585.67852783 C15.11689151 580.20236672 15.10773982 574.72618824 15.09765625 569.25 C15.07618926 558.49995259 15.04204166 547.74998525 15 537 C12.81486343 537 10.38288358 539.00927828 8.5859375 540.04296875 Z " fill="#FFFFFF" transform="translate(600,84)"/>
</svg>
